<svg xmlns="http://www.w3.org/2000/svg" width="980" height="520" viewBox="0 0 980 520">
<rect width="100%" height="100%" fill="white"/>
<text x="70" y="32" font-family="Arial" font-size="20" font-weight="700">Target distribution by split</text>
<line x1="70" y1="450" x2="950" y2="450" stroke="#222"/>
<line x1="70" y1="60" x2="70" y2="450" stroke="#222"/>
<rect x="70.00" y="290.05" width="7.33" height="159.95" fill="#4477aa" opacity="0.78"/>
<rect x="99.33" y="133.41" width="7.33" height="316.59" fill="#4477aa" opacity="0.78"/>
<rect x="128.67" y="60.00" width="7.33" height="390.00" fill="#4477aa" opacity="0.78"/>
<rect x="158.00" y="91.46" width="7.33" height="358.54" fill="#4477aa" opacity="0.78"/>
<rect x="187.33" y="127.22" width="7.33" height="322.78" fill="#4477aa" opacity="0.78"/>
<rect x="216.67" y="154.24" width="7.33" height="295.76" fill="#4477aa" opacity="0.78"/>
<rect x="246.00" y="181.88" width="7.33" height="268.12" fill="#4477aa" opacity="0.78"/>
<rect x="275.33" y="213.86" width="7.33" height="236.14" fill="#4477aa" opacity="0.78"/>
<rect x="304.67" y="252.02" width="7.33" height="197.98" fill="#4477aa" opacity="0.78"/>
<rect x="334.00" y="297.61" width="7.33" height="152.39" fill="#4477aa" opacity="0.78"/>
<rect x="363.33" y="330.06" width="7.33" height="119.94" fill="#4477aa" opacity="0.78"/>
<rect x="392.67" y="351.79" width="7.33" height="98.21" fill="#4477aa" opacity="0.78"/>
<rect x="422.00" y="373.66" width="7.33" height="76.34" fill="#4477aa" opacity="0.78"/>
<rect x="451.33" y="387.79" width="7.33" height="62.21" fill="#4477aa" opacity="0.78"/>
<rect x="480.67" y="402.38" width="7.33" height="47.62" fill="#4477aa" opacity="0.78"/>
<rect x="510.00" y="411.12" width="7.33" height="38.88" fill="#4477aa" opacity="0.78"/>
<rect x="539.33" y="416.13" width="7.33" height="33.87" fill="#4477aa" opacity="0.78"/>
<rect x="568.67" y="448.06" width="7.33" height="1.94" fill="#4477aa" opacity="0.78"/>
<rect x="598.00" y="450.00" width="7.33" height="0.00" fill="#4477aa" opacity="0.78"/>
<rect x="627.33" y="450.00" width="7.33" height="0.00" fill="#4477aa" opacity="0.78"/>
<rect x="656.67" y="450.00" width="7.33" height="0.00" fill="#4477aa" opacity="0.78"/>
<rect x="686.00" y="450.00" width="7.33" height="0.00" fill="#4477aa" opacity="0.78"/>
<rect x="715.33" y="450.00" width="7.33" height="0.00" fill="#4477aa" opacity="0.78"/>
<rect x="744.67" y="450.00" width="7.33" height="0.00" fill="#4477aa" opacity="0.78"/>
<rect x="774.00" y="450.00" width="7.33" height="0.00" fill="#4477aa" opacity="0.78"/>
<rect x="803.33" y="450.00" width="7.33" height="0.00" fill="#4477aa" opacity="0.78"/>
<rect x="832.67" y="450.00" width="7.33" height="0.00" fill="#4477aa" opacity="0.78"/>
<rect x="862.00" y="450.00" width="7.33" height="0.00" fill="#4477aa" opacity="0.78"/>
<rect x="891.33" y="450.00" width="7.33" height="0.00" fill="#4477aa" opacity="0.78"/>
<rect x="920.67" y="450.00" width="7.33" height="0.00" fill="#4477aa" opacity="0.78"/>
<rect x="77.33" y="439.14" width="7.33" height="10.86" fill="#cc6677" opacity="0.78"/>
<rect x="106.67" y="418.30" width="7.33" height="31.70" fill="#cc6677" opacity="0.78"/>
<rect x="136.00" y="420.81" width="7.33" height="29.19" fill="#cc6677" opacity="0.78"/>
<rect x="165.33" y="428.51" width="7.33" height="21.49" fill="#cc6677" opacity="0.78"/>
<rect x="194.67" y="434.60" width="7.33" height="15.40" fill="#cc6677" opacity="0.78"/>
<rect x="224.00" y="440.46" width="7.33" height="9.54" fill="#cc6677" opacity="0.78"/>
<rect x="253.33" y="441.69" width="7.33" height="8.31" fill="#cc6677" opacity="0.78"/>
<rect x="282.67" y="443.95" width="7.33" height="6.05" fill="#cc6677" opacity="0.78"/>
<rect x="312.00" y="444.99" width="7.33" height="5.01" fill="#cc6677" opacity="0.78"/>
<rect x="341.33" y="446.98" width="7.33" height="3.02" fill="#cc6677" opacity="0.78"/>
<rect x="370.67" y="446.93" width="7.33" height="3.07" fill="#cc6677" opacity="0.78"/>
<rect x="400.00" y="447.54" width="7.33" height="2.46" fill="#cc6677" opacity="0.78"/>
<rect x="429.33" y="448.58" width="7.33" height="1.42" fill="#cc6677" opacity="0.78"/>
<rect x="458.67" y="448.72" width="7.33" height="1.28" fill="#cc6677" opacity="0.78"/>
<rect x="488.00" y="449.06" width="7.33" height="0.94" fill="#cc6677" opacity="0.78"/>
<rect x="517.33" y="448.58" width="7.33" height="1.42" fill="#cc6677" opacity="0.78"/>
<rect x="546.67" y="449.20" width="7.33" height="0.80" fill="#cc6677" opacity="0.78"/>
<rect x="576.00" y="449.39" width="7.33" height="0.61" fill="#cc6677" opacity="0.78"/>
<rect x="605.33" y="449.53" width="7.33" height="0.47" fill="#cc6677" opacity="0.78"/>
<rect x="634.67" y="449.39" width="7.33" height="0.61" fill="#cc6677" opacity="0.78"/>
<rect x="664.00" y="449.01" width="7.33" height="0.99" fill="#cc6677" opacity="0.78"/>
<rect x="693.33" y="449.29" width="7.33" height="0.71" fill="#cc6677" opacity="0.78"/>
<rect x="722.67" y="449.43" width="7.33" height="0.57" fill="#cc6677" opacity="0.78"/>
<rect x="752.00" y="448.91" width="7.33" height="1.09" fill="#cc6677" opacity="0.78"/>
<rect x="781.33" y="448.82" width="7.33" height="1.18" fill="#cc6677" opacity="0.78"/>
<rect x="810.67" y="448.91" width="7.33" height="1.09" fill="#cc6677" opacity="0.78"/>
<rect x="840.00" y="449.34" width="7.33" height="0.66" fill="#cc6677" opacity="0.78"/>
<rect x="869.33" y="448.82" width="7.33" height="1.18" fill="#cc6677" opacity="0.78"/>
<rect x="898.67" y="449.62" width="7.33" height="0.38" fill="#cc6677" opacity="0.78"/>
<rect x="928.00" y="449.95" width="7.33" height="0.05" fill="#cc6677" opacity="0.78"/>
<rect x="84.67" y="440.13" width="7.33" height="9.87" fill="#228833" opacity="0.78"/>
<rect x="114.00" y="428.74" width="7.33" height="21.26" fill="#228833" opacity="0.78"/>
<rect x="143.33" y="416.84" width="7.33" height="33.16" fill="#228833" opacity="0.78"/>
<rect x="172.67" y="423.40" width="7.33" height="26.60" fill="#228833" opacity="0.78"/>
<rect x="202.00" y="431.15" width="7.33" height="18.85" fill="#228833" opacity="0.78"/>
<rect x="231.33" y="438.71" width="7.33" height="11.29" fill="#228833" opacity="0.78"/>
<rect x="260.67" y="442.58" width="7.33" height="7.42" fill="#228833" opacity="0.78"/>
<rect x="290.00" y="445.23" width="7.33" height="4.77" fill="#228833" opacity="0.78"/>
<rect x="319.33" y="446.74" width="7.33" height="3.26" fill="#228833" opacity="0.78"/>
<rect x="348.67" y="447.17" width="7.33" height="2.83" fill="#228833" opacity="0.78"/>
<rect x="378.00" y="447.64" width="7.33" height="2.36" fill="#228833" opacity="0.78"/>
<rect x="407.33" y="448.35" width="7.33" height="1.65" fill="#228833" opacity="0.78"/>
<rect x="436.67" y="448.63" width="7.33" height="1.37" fill="#228833" opacity="0.78"/>
<rect x="466.00" y="448.91" width="7.33" height="1.09" fill="#228833" opacity="0.78"/>
<rect x="495.33" y="448.87" width="7.33" height="1.13" fill="#228833" opacity="0.78"/>
<rect x="524.67" y="449.72" width="7.33" height="0.28" fill="#228833" opacity="0.78"/>
<rect x="554.00" y="450.00" width="7.33" height="0.00" fill="#228833" opacity="0.78"/>
<rect x="583.33" y="450.00" width="7.33" height="0.00" fill="#228833" opacity="0.78"/>
<rect x="612.67" y="450.00" width="7.33" height="0.00" fill="#228833" opacity="0.78"/>
<rect x="642.00" y="450.00" width="7.33" height="0.00" fill="#228833" opacity="0.78"/>
<rect x="671.33" y="450.00" width="7.33" height="0.00" fill="#228833" opacity="0.78"/>
<rect x="700.67" y="450.00" width="7.33" height="0.00" fill="#228833" opacity="0.78"/>
<rect x="730.00" y="450.00" width="7.33" height="0.00" fill="#228833" opacity="0.78"/>
<rect x="759.33" y="450.00" width="7.33" height="0.00" fill="#228833" opacity="0.78"/>
<rect x="788.67" y="450.00" width="7.33" height="0.00" fill="#228833" opacity="0.78"/>
<rect x="818.00" y="450.00" width="7.33" height="0.00" fill="#228833" opacity="0.78"/>
<rect x="847.33" y="450.00" width="7.33" height="0.00" fill="#228833" opacity="0.78"/>
<rect x="876.67" y="450.00" width="7.33" height="0.00" fill="#228833" opacity="0.78"/>
<rect x="906.00" y="450.00" width="7.33" height="0.00" fill="#228833" opacity="0.78"/>
<rect x="935.33" y="450.00" width="7.33" height="0.00" fill="#228833" opacity="0.78"/>
<rect x="90" y="480" width="16" height="12" fill="#4477aa"/>
<text x="114" y="492" font-family="Arial" font-size="14">train</text>
<rect x="210" y="480" width="16" height="12" fill="#cc6677"/>
<text x="234" y="492" font-family="Arial" font-size="14">val</text>
<rect x="330" y="480" width="16" height="12" fill="#228833"/>
<text x="354" y="492" font-family="Arial" font-size="14">test</text>
<text x="70" y="475" font-family="Arial" font-size="12">2.967e-05</text>
<text x="860" y="475" font-family="Arial" font-size="12">0.01447</text>
<text x="410.0" y="500" font-family="Arial" font-size="14">max_drift_ratio_raw</text>
<text x="14" y="210" transform="rotate(-90 14,210)" font-family="Arial" font-size="14">count</text>
</svg>